# xmcd
#
# Track frame offsets: 
#        150
#        23331
#        48806
#        75611
#        98359
#        118878
#        146691
#        172772
#        191542
#
# Disc length: 2873 seconds
#
# Revision: 1
# Processed by: cddbd v1.5.2PL0 Copyright (c) Steve Scherf et al.
# Submitted via: ExactAudioCopy v1.2
#
DISCID=5f0b3709
DTITLE=Nguyen Le Quartet - Streams
DYEAR=2018
DGENRE=Jazz
TTITLE0=Hippocampus
TTITLE1=Bamiyan
TTITLE2=Swing a Ming
TTITLE3=Subtle Body
TTITLE4=6h55
TTITLE5=Mazurka
TTITLE6=Sawira
TTITLE7=The Single Orange
TTITLE8=Coromandel
EXTD=YEAR: 2018
EXTT0=
EXTT1=
EXTT2=
EXTT3=
EXTT4=
EXTT5=
EXTT6=
EXTT7=
EXTT8=
PLAYORDER=
